{
  "accessors": [
    {
      "bufferView": 2,
      "componentType": 5126,
      "count": 42,
      "max": [
        8.3592157363891602,
        -4.9348721504211426,
        17.9222412109375
      ],
      "min": [
        -8.3592529296875,
        -9.3951539993286133,
        12.147486686706543
      ],
      "type": "VEC3"
    },
    {
      "bufferView": 2,
      "byteOffset": 504,
      "componentType": 5126,
      "count": 42,
      "max": [
        0.92838215827941895,
        -0.19746959209442139,
        0.09708104282617569
      ],
      "min": [
        -0.92838031053543091,
        -0.72688353061676025,
        -0.87892580032348633
      ],
      "type": "VEC3"
    },
    {
      "bufferView": 3,
      "componentType": 5126,
      "count": 42,
      "max": [
        0.71726727485656738,
        0.96532696485519409,
        0.23153677582740784,
        1
      ],
      "min": [
        0.2548864483833313,
        -0.96532660722732544,
        -0.23153053224086761,
        1
      ],
      "type": "VEC4"
    },
    {
      "bufferView": 1,
      "componentType": 5126,
      "count": 42,
      "max": [
        0.90625,
        3.992189884185791
      ],
      "min": [
        0.09375,
        3.757810115814209
      ],
      "type": "VEC2"
    },
    {
      "bufferView": 0,
      "componentType": 5125,
      "count": 162,
      "max": [
        41
      ],
      "min": [
        0
      ],
      "type": "SCALAR"
    },
    {
      "bufferView": 2,
      "byteOffset": 1008,
      "componentType": 5126,
      "count": 2214,
      "max": [
        19.437625885009766,
        12.553598403930664,
        38.360637664794922
      ],
      "min": [
        -17.120025634765625,
        -11.345004081726074,
        1.3724027780881443e-07
      ],
      "type": "VEC3"
    },
    {
      "bufferView": 2,
      "byteOffset": 27576,
      "componentType": 5126,
      "count": 2214,
      "max": [
        1.0000005960464478,
        0.99937713146209717,
        0.9999735951423645
      ],
      "min": [
        -1.0000005960464478,
        -0.9961203932762146,
        -1.0000001192092896
      ],
      "type": "VEC3"
    },
    {
      "bufferView": 3,
      "byteOffset": 672,
      "componentType": 5126,
      "count": 2214,
      "max": [
        1,
        1,
        0.99733972549438477,
        1
      ],
      "min": [
        -1,
        -1,
        -0.99733996391296387,
        -1
      ],
      "type": "VEC4"
    },
    {
      "bufferView": 1,
      "byteOffset": 336,
      "componentType": 5126,
      "count": 2214,
      "max": [
        1,
        0.9882810115814209
      ],
      "min": [
        0,
        0.011718999594449997
      ],
      "type": "VEC2"
    },
    {
      "bufferView": 0,
      "byteOffset": 648,
      "componentType": 5125,
      "count": 10944,
      "max": [
        2213
      ],
      "min": [
        0
      ],
      "type": "SCALAR"
    },
    {
      "bufferView": 2,
      "byteOffset": 54144,
      "componentType": 5126,
      "count": 38,
      "max": [
        6.4835405349731445,
        -8.1549615859985352,
        20.405517578125
      ],
      "min": [
        -6.483586311340332,
        -11.215603828430176,
        14.571401596069336
      ],
      "type": "VEC3"
    },
    {
      "bufferView": 2,
      "byteOffset": 54600,
      "componentType": 5126,
      "count": 38,
      "max": [
        0.72931993007659912,
        -0.65452390909194946,
        0.4860285222530365
      ],
      "min": [
        -0.72932136058807373,
        -0.98275107145309448,
        -0.47117060422897339
      ],
      "type": "VEC3"
    },
    {
      "bufferView": 3,
      "byteOffset": 36096,
      "componentType": 5126,
      "count": 38,
      "max": [
        0.98699045181274414,
        0.73207944631576538,
        0.033228166401386261,
        1
      ],
      "min": [
        0.6811453104019165,
        -0.73207980394363403,
        -0.033222511410713196,
        1
      ],
      "type": "VEC4"
    },
    {
      "bufferView": 1,
      "byteOffset": 18048,
      "componentType": 5126,
      "count": 38,
      "max": [
        0.46875,
        1.9921900033950806
      ],
      "min": [
        0.03125,
        1.7578099966049194
      ],
      "type": "VEC2"
    },
    {
      "bufferView": 0,
      "byteOffset": 44424,
      "componentType": 5125,
      "count": 138,
      "max": [
        37
      ],
      "min": [
        0
      ],
      "type": "SCALAR"
    },
    {
      "bufferView": 2,
      "byteOffset": 55056,
      "componentType": 5126,
      "count": 15,
      "max": [
        1.8116246461868286,
        -8.5899343490600586,
        17.406719207763672
      ],
      "min": [
        -1.8116573095321655,
        -11.345004081726074,
        12.371307373046875
      ],
      "type": "VEC3"
    },
    {
      "bufferView": 2,
      "byteOffset": 55236,
      "componentType": 5126,
      "count": 15,
      "max": [
        0.17738762497901917,
        -0.52614939212799072,
        0.1125049963593483
      ],
      "min": [
        -0.17738461494445801,
        -0.99365168809890747,
        -0.843505859375
      ],
      "type": "VEC3"
    },
    {
      "bufferView": 3,
      "byteOffset": 36704,
      "componentType": 5126,
      "count": 15,
      "max": [
        1,
        0.17259536683559418,
        0.090382307767868042,
        1
      ],
      "min": [
        0.98412925004959106,
        -0.17259401082992554,
        -0.090369679033756256,
        1
      ],
      "type": "VEC4"
    },
    {
      "bufferView": 1,
      "byteOffset": 18352,
      "componentType": 5126,
      "count": 15,
      "max": [
        0.39844000339508057,
        2.992189884185791
      ],
      "min": [
        0.1015629768371582,
        2.757810115814209
      ],
      "type": "VEC2"
    },
    {
      "bufferView": 0,
      "byteOffset": 44976,
      "componentType": 5125,
      "count": 48,
      "max": [
        14
      ],
      "min": [
        0
      ],
      "type": "SCALAR"
    },
    {
      "bufferView": 4,
      "componentType": 5126,
      "count": 1,
      "max": [
        1,
        0,
        0,
        0,
        0,
        1,
        0,
        0,
        0,
        0,
        1,
        0,
        0,
        0,
        0,
        1
      ],
      "min": [
        1,
        0,
        0,
        0,
        0,
        1,
        0,
        0,
        0,
        0,
        1,
        0,
        0,
        0,
        0,
        1
      ],
      "type": "MAT4"
    }
  ],
  "asset": {
    "extras": {
      "author": "EPFpower (https://sketchfab.com/EPFpower)",
      "license": "CC-BY-4.0 (http://creativecommons.org/licenses/by/4.0/)",
      "source": "https://sketchfab.com/models/7f16424fd4e048ac920434552159da46",
      "title": "Spiky Eared Pichu XY Style - Pokemon"
    },
    "generator": "Sketchfab-3.33.1",
    "version": "2.0"
  },
  "bufferViews": [
    {
      "buffer": 0,
      "byteLength": 45168,
      "byteOffset": 0,
      "name": "floatBufferViews",
      "target": 34963
    },
    {
      "buffer": 0,
      "byteLength": 18472,
      "byteOffset": 45168,
      "byteStride": 8,
      "name": "floatBufferViews",
      "target": 34962
    },
    {
      "buffer": 0,
      "byteLength": 55416,
      "byteOffset": 63640,
      "byteStride": 12,
      "name": "floatBufferViews",
      "target": 34962
    },
    {
      "buffer": 0,
      "byteLength": 36944,
      "byteOffset": 119056,
      "byteStride": 16,
      "name": "floatBufferViews",
      "target": 34962
    },
    {
      "buffer": 0,
      "byteLength": 64,
      "byteOffset": 156000,
      "byteStride": 64,
      "name": "floatBufferViews"
    }
  ],
  "buffers": [
    {
      "byteLength": 156064,
      "uri": "scene.bin"
    }
  ],
  "images": [
    {
      "uri": "textures/Material_148_baseColor.png"
    },
    {
      "uri": "textures/Material_147_baseColor.png"
    },
    {
      "uri": "textures/Material_146_baseColor.png"
    },
    {
      "uri": "textures/Material_149_baseColor.png"
    }
  ],
  "materials": [
    {
      "doubleSided": true,
      "emissiveFactor": [
        0,
        0,
        0
      ],
      "name": "Material_146",
      "pbrMetallicRoughness": {
        "baseColorFactor": [
          1,
          1,
          1,
          1
        ],
        "baseColorTexture": {
          "index": 2,
          "texCoord": 0
        },
        "metallicFactor": 0,
        "roughnessFactor": 1
      }
    },
    {
      "doubleSided": true,
      "emissiveFactor": [
        0,
        0,
        0
      ],
      "name": "Material_147",
      "pbrMetallicRoughness": {
        "baseColorFactor": [
          1,
          1,
          1,
          1
        ],
        "baseColorTexture": {
          "index": 1,
          "texCoord": 0
        },
        "metallicFactor": 0,
        "roughnessFactor": 1
      }
    },
    {
      "doubleSided": true,
      "emissiveFactor": [
        0,
        0,
        0
      ],
      "name": "Material_148",
      "pbrMetallicRoughness": {
        "baseColorFactor": [
          1,
          1,
          1,
          1
        ],
        "baseColorTexture": {
          "index": 0,
          "texCoord": 0
        },
        "metallicFactor": 0,
        "roughnessFactor": 1
      }
    },
    {
      "doubleSided": true,
      "emissiveFactor": [
        0,
        0,
        0
      ],
      "name": "Material_149",
      "pbrMetallicRoughness": {
        "baseColorFactor": [
          1,
          1,
          1,
          1
        ],
        "baseColorTexture": {
          "index": 3,
          "texCoord": 0
        },
        "metallicFactor": 0,
        "roughnessFactor": 1
      }
    }
  ],
  "meshes": [
    {
      "primitives": [
        {
          "attributes": {
            "NORMAL": 1,
            "POSITION": 0,
            "TANGENT": 2,
            "TEXCOORD_0": 3
          },
          "indices": 4,
          "material": 0,
          "mode": 4
        }
      ]
    },
    {
      "primitives": [
        {
          "attributes": {
            "NORMAL": 6,
            "POSITION": 5,
            "TANGENT": 7,
            "TEXCOORD_0": 8
          },
          "indices": 9,
          "material": 1,
          "mode": 4
        }
      ]
    },
    {
      "primitives": [
        {
          "attributes": {
            "NORMAL": 11,
            "POSITION": 10,
            "TANGENT": 12,
            "TEXCOORD_0": 13
          },
          "indices": 14,
          "material": 2,
          "mode": 4
        }
      ]
    },
    {
      "primitives": [
        {
          "attributes": {
            "NORMAL": 16,
            "POSITION": 15,
            "TANGENT": 17,
            "TEXCOORD_0": 18
          },
          "indices": 19,
          "material": 3,
          "mode": 4
        }
      ]
    }
  ],
  "nodes": [
    {
      "children": [
        1
      ],
      "name": "RootNode (gltf orientation matrix)",
      "rotation": [
        -0.70710678118654746,
        -0,
        -0,
        0.70710678118654757
      ]
    },
    {
      "children": [
        2
      ],
      "name": "RootNode (model correction matrix)"
    },
    {
      "children": [
        3
      ],
      "matrix": [
        1,
        0,
        0,
        0,
        0,
        0,
        1,
        0,
        0,
        -1,
        0,
        0,
        0,
        0,
        0,
        1
      ],
      "name": "Pichu.FBX"
    },
    {
      "children": [
        4
      ],
      "name": "RootNode"
    },
    {
      "children": [
        5,
        6
      ],
      "name": ""
    },
    {
      "name": "_rootJoint"
    },
    {
      "children": [
        7,
        8,
        9,
        10
      ],
      "matrix": [
        2.5400000000000005,
        -2.4651903288156619e-32,
        0,
        0,
        1.5094937227365561e-48,
        1.5553014349171388e-16,
        -2.5400000000000005,
        0,
        2.4651903288156619e-32,
        2.5400000000000005,
        1.5553014349171388e-16,
        0,
        1.3552527156068805e-20,
        -3.5527136788005009e-15,
        -4.4408920985006262e-16,
        1
      ],
      "name": ""
    },
    {
      "mesh": 0,
      "name": ""
    },
    {
      "mesh": 1,
      "name": ""
    },
    {
      "mesh": 2,
      "name": ""
    },
    {
      "mesh": 3,
      "name": ""
    }
  ],
  "samplers": [
    {
      "magFilter": 9729,
      "minFilter": 9987,
      "wrapS": 10497,
      "wrapT": 10497
    }
  ],
  "scene": 0,
  "scenes": [
    {
      "name": "OSG_Scene",
      "nodes": [
        0
      ]
    }
  ],
  "skins": [
    {
      "inverseBindMatrices": 20,
      "joints": [
        5
      ],
      "skeleton": 5
    }
  ],
  "textures": [
    {
      "sampler": 0,
      "source": 0
    },
    {
      "sampler": 0,
      "source": 1
    },
    {
      "sampler": 0,
      "source": 2
    },
    {
      "sampler": 0,
      "source": 3
    }
  ]
}

